<?xml version="1.0" standalone="no"?>
<!DOCTYPE svg PUBLIC "-//W3C//DTD SVG 20010904//EN"
 "http://www.w3.org/TR/2001/REC-SVG-20010904/DTD/svg10.dtd">
<svg version="1.0" xmlns="http://www.w3.org/2000/svg"
 width="640.000000pt" height="640.000000pt" viewBox="0 0 640.000000 640.000000"
 preserveAspectRatio="xMidYMid meet">
<metadata>
Created by potrace 1.14, written by Peter Selinger 2001-2017
</metadata>
<g transform="translate(0.000000,640.000000) scale(0.100000,-0.100000)"
fill="#000000" stroke="none">
<path d="M0 3200 l0 -3200 3200 0 3200 0 0 3200 0 3200 -3200 0 -3200 0 0
-3200z m2601 1233 c145 -16 198 -16 634 -10 63 1 174 -18 189 -33 5 -5 15 -6
22 -3 8 3 20 1 27 -4 6 -6 35 -16 62 -23 28 -7 61 -19 75 -26 14 -6 52 -25 85
-40 33 -16 84 -43 113 -61 29 -18 54 -33 57 -33 2 0 41 -25 85 -55 44 -30 83
-55 85 -55 2 0 51 -30 110 -67 58 -38 121 -77 139 -88 18 -11 41 -28 50 -37
10 -10 26 -18 37 -18 10 0 19 -4 19 -10 0 -5 6 -10 14 -10 8 0 42 -12 75 -27
68 -30 59 -8 80 -194 10 -84 28 -147 111 -382 66 -188 118 -310 144 -336 50
-50 107 -26 156 64 35 65 50 68 50 13 0 -33 3 -34 44 -9 75 46 141 33 190 -38
31 -44 55 -136 56 -206 0 -139 -98 -468 -183 -610 -36 -60 -102 -131 -139
-151 -39 -20 -98 -17 -137 7 l-34 21 6 114 c4 63 10 122 16 131 5 10 11 37 15
61 4 33 2 42 -9 42 -8 0 -15 -7 -15 -15 0 -8 -6 -15 -13 -15 -11 0 -97 -166
-97 -187 0 -15 -25 -63 -32 -63 -5 0 -8 -9 -8 -20 0 -12 -11 -32 -25 -46 -14
-14 -25 -31 -25 -38 0 -8 -20 -34 -44 -59 -24 -25 -41 -48 -38 -51 3 -4 -2 -6
-11 -6 -8 0 -18 -8 -21 -18 -4 -10 -14 -27 -24 -38 -9 -11 -28 -35 -41 -54
-13 -19 -30 -42 -38 -50 -7 -8 -38 -48 -69 -87 -31 -40 -61 -73 -65 -73 -5 0
-9 -5 -9 -10 0 -9 -88 -100 -97 -100 -1 0 -18 -15 -37 -32 -47 -45 -71 -64
-97 -79 -13 -6 -28 -16 -33 -21 -6 -5 -38 -27 -71 -48 -93 -62 -107 -72 -156
-112 -26 -21 -50 -38 -54 -38 -3 0 -40 -28 -82 -63 -41 -34 -101 -80 -132
-103 -32 -22 -69 -50 -82 -63 -13 -12 -44 -34 -69 -48 -25 -14 -54 -34 -65
-43 -11 -10 -56 -30 -100 -46 -75 -25 -91 -27 -255 -27 -161 -1 -244 7 -370
35 -25 5 -58 12 -75 15 -16 2 -46 12 -65 20 -19 9 -45 17 -58 19 -44 5 -108
45 -172 107 -76 75 -139 144 -121 133 12 -8 -91 134 -140 192 -10 13 -19 30
-19 38 0 9 -4 13 -8 10 -5 -3 -15 7 -22 22 -8 15 -24 41 -36 57 -61 85 -174
258 -179 275 -4 11 -10 20 -14 20 -5 0 -11 14 -15 32 -3 17 -13 39 -20 47 -8
9 -29 75 -46 146 -32 129 -33 131 -34 400 0 149 3 342 7 430 8 154 15 351 22
560 2 55 6 176 10 270 3 93 10 186 15 205 12 44 12 59 0 40 -13 -20 -13 1 0
35 7 17 7 24 0 20 -6 -3 -10 1 -10 9 0 9 4 16 8 16 4 0 8 15 8 33 0 42 68 175
119 233 53 59 109 115 146 145 44 36 209 125 209 113 0 -4 6 -2 13 3 11 10
152 48 207 56 57 9 156 6 301 -10z m-1044 -1185 c-3 -7 -5 -2 -5 12 0 14 2 19
5 13 2 -7 2 -19 0 -25z m-17 -128 c0 -53 -15 -67 -26 -24 -6 23 8 74 21 74 3
0 5 -22 5 -50z m-13 -252 c-2 -18 -4 -6 -4 27 0 33 2 48 4 33 2 -15 2 -42 0
-60z m10 -120 c-3 -7 -5 -2 -5 12 0 14 2 19 5 13 2 -7 2 -19 0 -25z m0 -100
c-3 -7 -5 -2 -5 12 0 14 2 19 5 13 2 -7 2 -19 0 -25z m-10 -200 c-3 -7 -5 -2
-5 12 0 14 2 19 5 13 2 -7 2 -19 0 -25z m0 -60 c-3 -7 -5 -2 -5 12 0 14 2 19
5 13 2 -7 2 -19 0 -25z m0 -60 c-3 -7 -5 -2 -5 12 0 14 2 19 5 13 2 -7 2 -19
0 -25z"/>
<path d="M1745 3368 c-32 -4 -74 -13 -92 -19 -29 -9 -33 -15 -33 -45 0 -68 10
-74 113 -75 51 0 84 -4 74 -8 -36 -14 7 -31 150 -60 76 -16 205 -52 288 -80
92 -31 153 -47 158 -42 16 16 0 40 -38 58 -40 19 -44 34 -13 48 12 6 26 23 31
39 19 58 -44 103 -210 150 -144 41 -284 52 -428 34z"/>
<path d="M3310 3283 c-100 -13 -232 -44 -254 -58 -50 -33 -39 -87 25 -121 36
-18 89 -16 249 10 113 19 434 21 592 5 122 -12 163 -5 192 34 18 25 19 29 4
43 -18 18 -126 45 -278 69 -102 16 -456 28 -530 18z"/>
<path d="M3405 3100 c-33 -4 -85 -14 -117 -23 -31 -10 -64 -14 -74 -10 -16 6
-16 5 -5 -8 9 -9 28 -13 50 -12 108 10 329 35 351 40 22 6 21 7 -15 14 -47 9
-107 9 -190 -1z"/>
<path d="M1763 3076 c-93 -30 -153 -89 -153 -151 0 -59 49 -76 70 -25 27 65
146 140 222 140 23 0 23 1 -8 -60 -44 -87 -33 -207 26 -291 l21 -29 112 0 c76
1 125 6 152 16 61 24 89 29 81 15 -5 -7 4 -11 26 -11 27 0 37 6 52 31 15 26
20 28 34 17 14 -12 15 -9 8 22 -5 19 -9 44 -10 54 -1 19 -10 32 -72 105 -17
20 -29 42 -26 50 3 9 0 11 -7 6 -7 -4 -20 2 -30 14 -10 11 -21 18 -25 14 -3
-3 -6 -1 -6 5 0 7 -3 11 -7 10 -5 -1 -27 8 -51 21 -106 55 -308 78 -409 47z
m326 -88 c33 -58 -50 -107 -99 -58 -27 27 -25 54 5 78 32 25 74 16 94 -20z"/>
<path d="M5001 3014 c0 -11 3 -14 6 -6 3 7 2 16 -1 19 -3 4 -6 -2 -5 -13z"/>
<path d="M3510 2990 c-225 -27 -370 -137 -370 -281 0 -49 7 -79 19 -79 4 0 15
18 25 41 19 42 153 189 173 189 8 0 8 -12 1 -42 -12 -56 -3 -121 28 -185 31
-65 40 -68 199 -68 105 0 124 3 150 21 49 34 53 35 68 20 22 -23 80 -3 97 32
17 37 25 163 12 201 -20 57 14 39 111 -57 56 -54 59 -56 73 -38 18 26 18 35
-6 74 -28 45 -128 107 -221 137 -62 19 -259 49 -288 44 -3 -1 -35 -5 -71 -9z
m63 -67 c38 -43 15 -103 -40 -103 -35 0 -63 27 -63 60 0 30 13 45 45 53 35 8
42 7 58 -10z"/>
<path d="M5175 2848 c-99 -36 -191 -141 -219 -250 -11 -45 10 -33 53 31 43 62
95 111 146 135 16 8 40 24 53 36 18 17 20 25 12 40 -6 11 -12 20 -13 19 -1 0
-15 -5 -32 -11z"/>
<path d="M2351 2080 c-1 -56 29 -123 70 -159 16 -15 57 -37 89 -50 81 -32 213
-28 280 9 53 30 89 86 82 130 -2 17 -7 30 -9 30 -3 0 -21 -13 -39 -30 -58 -51
-111 -72 -194 -77 -143 -10 -250 52 -271 157 -7 35 -7 34 -8 -10z"/>
<path d="M2403 1660 c-88 -8 -144 -26 -197 -66 -15 -10 -17 -17 -9 -25 9 -9
37 -8 110 1 54 7 141 10 193 9 77 -3 94 -1 92 10 -2 11 6 12 35 8 21 -3 66 -9
101 -13 55 -6 60 -8 45 -20 -16 -12 -16 -13 10 -14 15 0 27 5 27 11 0 6 7 3
16 -5 8 -9 24 -16 33 -16 10 0 67 -12 127 -26 167 -39 165 -39 104 1 -51 33
-148 69 -265 96 -27 6 -72 18 -100 25 -27 7 -81 16 -120 18 -38 3 -79 7 -90
10 -11 2 -61 0 -112 -4z"/>
<path d="M2653 1573 c9 -2 23 -2 30 0 6 3 -1 5 -18 5 -16 0 -22 -2 -12 -5z"/>
</g>
</svg>
